<mxfile host="app.diagrams.net" agent="Mozilla/5.0 (Windows NT 10.0; Win64; x64; rv:132.0) Gecko/20100101 Firefox/132.0" version="24.8.4">
  <diagram name="Page-1" id="t5Wb0asTRuvKsqMnSSx4">
    <mxGraphModel dx="1434" dy="753" grid="1" gridSize="10" guides="1" tooltips="1" connect="1" arrows="1" fold="1" page="1" pageScale="1" pageWidth="827" pageHeight="1169" math="0" shadow="0">
      <root>
        <mxCell id="0" />
        <mxCell id="1" parent="0" />
        <mxCell id="YrzJOqZfdvEQFL6Ilnsr-1" value="&lt;h3&gt;&lt;font style=&quot;font-size: 12px;&quot;&gt;Player&lt;/font&gt;&lt;/h3&gt;&lt;pre&gt;&lt;font size=&quot;3&quot;&gt;- Health&lt;br&gt;- Pyromana&lt;br&gt;- Play&lt;br&gt;- End Turn&lt;br&gt;&lt;/font&gt;&lt;/pre&gt;" style="rounded=0;whiteSpace=wrap;html=1;" vertex="1" parent="1">
          <mxGeometry x="180" y="200" width="120" height="100" as="geometry" />
        </mxCell>
        <mxCell id="YrzJOqZfdvEQFL6Ilnsr-2" value="&lt;h3&gt;&lt;font style=&quot;font-size: 12px;&quot;&gt;Starting Deck&lt;/font&gt;&lt;/h3&gt;&lt;pre&gt;&lt;font size=&quot;3&quot;&gt;- Shuffle&lt;br&gt;&lt;/font&gt;&lt;/pre&gt;" style="rounded=0;whiteSpace=wrap;html=1;" vertex="1" parent="1">
          <mxGeometry x="320" y="350" width="120" height="100" as="geometry" />
        </mxCell>
        <mxCell id="YrzJOqZfdvEQFL6Ilnsr-3" value="" style="endArrow=none;html=1;rounded=0;entryX=0.5;entryY=1;entryDx=0;entryDy=0;exitX=0.5;exitY=0;exitDx=0;exitDy=0;" edge="1" parent="1" source="YrzJOqZfdvEQFL6Ilnsr-2" target="YrzJOqZfdvEQFL6Ilnsr-1">
          <mxGeometry width="50" height="50" relative="1" as="geometry">
            <mxPoint x="610" y="500" as="sourcePoint" />
            <mxPoint x="660" y="450" as="targetPoint" />
          </mxGeometry>
        </mxCell>
        <mxCell id="YrzJOqZfdvEQFL6Ilnsr-4" value="&lt;h3&gt;&lt;font style=&quot;font-size: 12px;&quot;&gt;Hand&lt;/font&gt;&lt;/h3&gt;" style="rounded=0;whiteSpace=wrap;html=1;" vertex="1" parent="1">
          <mxGeometry x="480" y="350" width="120" height="100" as="geometry" />
        </mxCell>
        <mxCell id="YrzJOqZfdvEQFL6Ilnsr-5" value="Discard Pile" style="rounded=0;whiteSpace=wrap;html=1;" vertex="1" parent="1">
          <mxGeometry x="634" y="350" width="120" height="100" as="geometry" />
        </mxCell>
        <mxCell id="YrzJOqZfdvEQFL6Ilnsr-8" value="" style="endArrow=none;html=1;rounded=0;exitX=1;exitY=0.5;exitDx=0;exitDy=0;entryX=0.5;entryY=0;entryDx=0;entryDy=0;" edge="1" parent="1" source="YrzJOqZfdvEQFL6Ilnsr-1" target="YrzJOqZfdvEQFL6Ilnsr-4">
          <mxGeometry width="50" height="50" relative="1" as="geometry">
            <mxPoint x="570" y="250" as="sourcePoint" />
            <mxPoint x="620" y="200" as="targetPoint" />
            <Array as="points">
              <mxPoint x="540" y="250" />
            </Array>
          </mxGeometry>
        </mxCell>
        <mxCell id="YrzJOqZfdvEQFL6Ilnsr-9" value="" style="endArrow=none;html=1;rounded=0;entryX=0.5;entryY=0;entryDx=0;entryDy=0;" edge="1" parent="1" target="YrzJOqZfdvEQFL6Ilnsr-5">
          <mxGeometry width="50" height="50" relative="1" as="geometry">
            <mxPoint x="540" y="250" as="sourcePoint" />
            <mxPoint x="620" y="200" as="targetPoint" />
            <Array as="points">
              <mxPoint x="694" y="250" />
            </Array>
          </mxGeometry>
        </mxCell>
        <mxCell id="YrzJOqZfdvEQFL6Ilnsr-11" value="&lt;h3&gt;Enemy&lt;br&gt;&lt;/h3&gt;&lt;pre&gt;&lt;font size=&quot;3&quot;&gt;- Heath&lt;br&gt;- Turn&lt;br&gt;&lt;/font&gt;&lt;/pre&gt;" style="rounded=0;whiteSpace=wrap;html=1;" vertex="1" parent="1">
          <mxGeometry x="20" y="200" width="120" height="100" as="geometry" />
        </mxCell>
        <mxCell id="YrzJOqZfdvEQFL6Ilnsr-15" value="&lt;h3&gt;Card&lt;br&gt;&lt;/h3&gt;&lt;pre&gt;&lt;font size=&quot;3&quot;&gt;- Name&lt;br&gt;&lt;/font&gt;&lt;/pre&gt;" style="rounded=0;whiteSpace=wrap;html=1;" vertex="1" parent="1">
          <mxGeometry x="540" y="500" width="120" height="100" as="geometry" />
        </mxCell>
        <mxCell id="YrzJOqZfdvEQFL6Ilnsr-16" value="" style="endArrow=none;html=1;rounded=0;exitX=0.5;exitY=1;exitDx=0;exitDy=0;entryX=0;entryY=0.5;entryDx=0;entryDy=0;" edge="1" parent="1" source="YrzJOqZfdvEQFL6Ilnsr-2" target="YrzJOqZfdvEQFL6Ilnsr-15">
          <mxGeometry width="50" height="50" relative="1" as="geometry">
            <mxPoint x="570" y="430" as="sourcePoint" />
            <mxPoint x="620" y="380" as="targetPoint" />
          </mxGeometry>
        </mxCell>
        <mxCell id="YrzJOqZfdvEQFL6Ilnsr-17" value="" style="endArrow=none;html=1;rounded=0;exitX=0.558;exitY=1.04;exitDx=0;exitDy=0;exitPerimeter=0;entryX=0;entryY=0.25;entryDx=0;entryDy=0;" edge="1" parent="1" source="YrzJOqZfdvEQFL6Ilnsr-2" target="YrzJOqZfdvEQFL6Ilnsr-15">
          <mxGeometry width="50" height="50" relative="1" as="geometry">
            <mxPoint x="570" y="430" as="sourcePoint" />
            <mxPoint x="620" y="380" as="targetPoint" />
          </mxGeometry>
        </mxCell>
        <mxCell id="YrzJOqZfdvEQFL6Ilnsr-18" value="" style="endArrow=none;html=1;rounded=0;exitX=0.5;exitY=1;exitDx=0;exitDy=0;entryX=0;entryY=0.75;entryDx=0;entryDy=0;" edge="1" parent="1" source="YrzJOqZfdvEQFL6Ilnsr-2" target="YrzJOqZfdvEQFL6Ilnsr-15">
          <mxGeometry width="50" height="50" relative="1" as="geometry">
            <mxPoint x="570" y="430" as="sourcePoint" />
            <mxPoint x="620" y="380" as="targetPoint" />
          </mxGeometry>
        </mxCell>
        <mxCell id="YrzJOqZfdvEQFL6Ilnsr-19" value="" style="endArrow=none;html=1;rounded=0;exitX=0.5;exitY=1;exitDx=0;exitDy=0;entryX=0.5;entryY=0;entryDx=0;entryDy=0;" edge="1" parent="1" source="YrzJOqZfdvEQFL6Ilnsr-4" target="YrzJOqZfdvEQFL6Ilnsr-15">
          <mxGeometry width="50" height="50" relative="1" as="geometry">
            <mxPoint x="570" y="430" as="sourcePoint" />
            <mxPoint x="620" y="380" as="targetPoint" />
          </mxGeometry>
        </mxCell>
        <mxCell id="YrzJOqZfdvEQFL6Ilnsr-20" value="" style="endArrow=none;html=1;rounded=0;exitX=0.5;exitY=1;exitDx=0;exitDy=0;entryX=0.25;entryY=0;entryDx=0;entryDy=0;" edge="1" parent="1" source="YrzJOqZfdvEQFL6Ilnsr-4" target="YrzJOqZfdvEQFL6Ilnsr-15">
          <mxGeometry width="50" height="50" relative="1" as="geometry">
            <mxPoint x="570" y="430" as="sourcePoint" />
            <mxPoint x="620" y="380" as="targetPoint" />
          </mxGeometry>
        </mxCell>
        <mxCell id="YrzJOqZfdvEQFL6Ilnsr-21" value="" style="endArrow=none;html=1;rounded=0;entryX=0.75;entryY=0;entryDx=0;entryDy=0;" edge="1" parent="1" target="YrzJOqZfdvEQFL6Ilnsr-15">
          <mxGeometry width="50" height="50" relative="1" as="geometry">
            <mxPoint x="540" y="450" as="sourcePoint" />
            <mxPoint x="620" y="380" as="targetPoint" />
          </mxGeometry>
        </mxCell>
        <mxCell id="YrzJOqZfdvEQFL6Ilnsr-22" value="" style="endArrow=none;html=1;rounded=0;exitX=0.5;exitY=1;exitDx=0;exitDy=0;entryX=1;entryY=0.25;entryDx=0;entryDy=0;" edge="1" parent="1" source="YrzJOqZfdvEQFL6Ilnsr-5" target="YrzJOqZfdvEQFL6Ilnsr-15">
          <mxGeometry width="50" height="50" relative="1" as="geometry">
            <mxPoint x="570" y="430" as="sourcePoint" />
            <mxPoint x="620" y="380" as="targetPoint" />
          </mxGeometry>
        </mxCell>
        <mxCell id="YrzJOqZfdvEQFL6Ilnsr-23" value="" style="endArrow=none;html=1;rounded=0;exitX=0.5;exitY=1;exitDx=0;exitDy=0;entryX=1;entryY=0.5;entryDx=0;entryDy=0;" edge="1" parent="1" source="YrzJOqZfdvEQFL6Ilnsr-5" target="YrzJOqZfdvEQFL6Ilnsr-15">
          <mxGeometry width="50" height="50" relative="1" as="geometry">
            <mxPoint x="570" y="430" as="sourcePoint" />
            <mxPoint x="620" y="380" as="targetPoint" />
          </mxGeometry>
        </mxCell>
        <mxCell id="YrzJOqZfdvEQFL6Ilnsr-24" value="" style="endArrow=none;html=1;rounded=0;exitX=0.5;exitY=1;exitDx=0;exitDy=0;entryX=1;entryY=0.75;entryDx=0;entryDy=0;" edge="1" parent="1" source="YrzJOqZfdvEQFL6Ilnsr-5" target="YrzJOqZfdvEQFL6Ilnsr-15">
          <mxGeometry width="50" height="50" relative="1" as="geometry">
            <mxPoint x="570" y="430" as="sourcePoint" />
            <mxPoint x="620" y="380" as="targetPoint" />
          </mxGeometry>
        </mxCell>
        <mxCell id="YrzJOqZfdvEQFL6Ilnsr-28" value="" style="endArrow=none;html=1;rounded=0;exitX=0;exitY=0.5;exitDx=0;exitDy=0;entryX=1;entryY=0.5;entryDx=0;entryDy=0;" edge="1" parent="1" source="YrzJOqZfdvEQFL6Ilnsr-1" target="YrzJOqZfdvEQFL6Ilnsr-11">
          <mxGeometry width="50" height="50" relative="1" as="geometry">
            <mxPoint x="390" y="590" as="sourcePoint" />
            <mxPoint x="440" y="540" as="targetPoint" />
          </mxGeometry>
        </mxCell>
        <mxCell id="YrzJOqZfdvEQFL6Ilnsr-30" value="&lt;h3&gt;Targets Self&lt;/h3&gt;&lt;div&gt;- Play (Player)&lt;br&gt;&lt;/div&gt;" style="rounded=0;whiteSpace=wrap;html=1;" vertex="1" parent="1">
          <mxGeometry x="140" y="500" width="120" height="100" as="geometry" />
        </mxCell>
        <mxCell id="YrzJOqZfdvEQFL6Ilnsr-31" value="" style="endArrow=none;html=1;rounded=0;exitX=0.5;exitY=0;exitDx=0;exitDy=0;entryX=0.167;entryY=1.01;entryDx=0;entryDy=0;entryPerimeter=0;" edge="1" parent="1" source="YrzJOqZfdvEQFL6Ilnsr-30" target="YrzJOqZfdvEQFL6Ilnsr-1">
          <mxGeometry width="50" height="50" relative="1" as="geometry">
            <mxPoint x="390" y="590" as="sourcePoint" />
            <mxPoint x="440" y="540" as="targetPoint" />
          </mxGeometry>
        </mxCell>
        <mxCell id="YrzJOqZfdvEQFL6Ilnsr-34" value="" style="endArrow=none;html=1;rounded=0;exitX=0;exitY=1;exitDx=0;exitDy=0;entryX=1;entryY=1;entryDx=0;entryDy=0;" edge="1" parent="1" source="YrzJOqZfdvEQFL6Ilnsr-15" target="YrzJOqZfdvEQFL6Ilnsr-30">
          <mxGeometry width="50" height="50" relative="1" as="geometry">
            <mxPoint x="390" y="590" as="sourcePoint" />
            <mxPoint x="440" y="540" as="targetPoint" />
          </mxGeometry>
        </mxCell>
        <mxCell id="YrzJOqZfdvEQFL6Ilnsr-36" value="&lt;h3&gt;Targets Enemy&lt;/h3&gt;&lt;div&gt;- Play (Enemy)&lt;br&gt;&lt;/div&gt;" style="rounded=0;whiteSpace=wrap;html=1;" vertex="1" parent="1">
          <mxGeometry x="80" y="830" width="120" height="100" as="geometry" />
        </mxCell>
        <mxCell id="YrzJOqZfdvEQFL6Ilnsr-37" value="" style="endArrow=none;html=1;rounded=0;exitX=0.5;exitY=1;exitDx=0;exitDy=0;entryX=1;entryY=0.5;entryDx=0;entryDy=0;" edge="1" parent="1" source="YrzJOqZfdvEQFL6Ilnsr-15" target="YrzJOqZfdvEQFL6Ilnsr-36">
          <mxGeometry width="50" height="50" relative="1" as="geometry">
            <mxPoint x="390" y="590" as="sourcePoint" />
            <mxPoint x="440" y="540" as="targetPoint" />
            <Array as="points">
              <mxPoint x="600" y="880" />
            </Array>
          </mxGeometry>
        </mxCell>
        <mxCell id="YrzJOqZfdvEQFL6Ilnsr-38" value="" style="endArrow=none;html=1;rounded=0;exitX=0;exitY=0.5;exitDx=0;exitDy=0;entryX=0.5;entryY=1;entryDx=0;entryDy=0;" edge="1" parent="1" source="YrzJOqZfdvEQFL6Ilnsr-36" target="YrzJOqZfdvEQFL6Ilnsr-11">
          <mxGeometry width="50" height="50" relative="1" as="geometry">
            <mxPoint x="390" y="590" as="sourcePoint" />
            <mxPoint x="440" y="540" as="targetPoint" />
            <Array as="points">
              <mxPoint x="80" y="750" />
            </Array>
          </mxGeometry>
        </mxCell>
        <mxCell id="YrzJOqZfdvEQFL6Ilnsr-39" value="&lt;h3&gt;&lt;font size=&quot;3&quot;&gt;Store&lt;/font&gt;&lt;br&gt;&lt;/h3&gt;" style="rounded=0;whiteSpace=wrap;html=1;" vertex="1" parent="1">
          <mxGeometry x="694" y="550" width="120" height="100" as="geometry" />
        </mxCell>
        <mxCell id="YrzJOqZfdvEQFL6Ilnsr-41" value="" style="endArrow=none;html=1;rounded=0;exitX=1;exitY=1;exitDx=0;exitDy=0;entryX=0.5;entryY=0;entryDx=0;entryDy=0;" edge="1" parent="1" source="YrzJOqZfdvEQFL6Ilnsr-5" target="YrzJOqZfdvEQFL6Ilnsr-39">
          <mxGeometry width="50" height="50" relative="1" as="geometry">
            <mxPoint x="570" y="600" as="sourcePoint" />
            <mxPoint x="620" y="550" as="targetPoint" />
          </mxGeometry>
        </mxCell>
        <mxCell id="YrzJOqZfdvEQFL6Ilnsr-42" value="" style="endArrow=none;html=1;rounded=0;entryX=0;entryY=1;entryDx=0;entryDy=0;exitX=1;exitY=0.75;exitDx=0;exitDy=0;" edge="1" parent="1" source="YrzJOqZfdvEQFL6Ilnsr-15" target="YrzJOqZfdvEQFL6Ilnsr-39">
          <mxGeometry width="50" height="50" relative="1" as="geometry">
            <mxPoint x="570" y="600" as="sourcePoint" />
            <mxPoint x="620" y="550" as="targetPoint" />
          </mxGeometry>
        </mxCell>
        <mxCell id="YrzJOqZfdvEQFL6Ilnsr-43" value="" style="endArrow=none;html=1;rounded=0;entryX=0;entryY=1;entryDx=0;entryDy=0;exitX=1;exitY=1;exitDx=0;exitDy=0;" edge="1" parent="1" source="YrzJOqZfdvEQFL6Ilnsr-15" target="YrzJOqZfdvEQFL6Ilnsr-39">
          <mxGeometry width="50" height="50" relative="1" as="geometry">
            <mxPoint x="570" y="600" as="sourcePoint" />
            <mxPoint x="620" y="550" as="targetPoint" />
          </mxGeometry>
        </mxCell>
        <mxCell id="YrzJOqZfdvEQFL6Ilnsr-46" value="" style="endArrow=none;html=1;rounded=0;entryX=0;entryY=1;entryDx=0;entryDy=0;exitX=0.75;exitY=1;exitDx=0;exitDy=0;" edge="1" parent="1" source="YrzJOqZfdvEQFL6Ilnsr-15" target="YrzJOqZfdvEQFL6Ilnsr-39">
          <mxGeometry width="50" height="50" relative="1" as="geometry">
            <mxPoint x="570" y="600" as="sourcePoint" />
            <mxPoint x="620" y="550" as="targetPoint" />
            <Array as="points">
              <mxPoint x="670" y="690" />
            </Array>
          </mxGeometry>
        </mxCell>
        <mxCell id="YrzJOqZfdvEQFL6Ilnsr-48" value="&lt;h3&gt;Pyromana&lt;/h3&gt;&lt;div&gt;&lt;br&gt;&lt;/div&gt;" style="rounded=0;whiteSpace=wrap;html=1;" vertex="1" parent="1">
          <mxGeometry x="140" y="640" width="120" height="100" as="geometry" />
        </mxCell>
        <mxCell id="YrzJOqZfdvEQFL6Ilnsr-49" value="" style="endArrow=none;html=1;rounded=0;exitX=0.25;exitY=1;exitDx=0;exitDy=0;entryX=1;entryY=0.5;entryDx=0;entryDy=0;" edge="1" parent="1" source="YrzJOqZfdvEQFL6Ilnsr-2" target="YrzJOqZfdvEQFL6Ilnsr-48">
          <mxGeometry width="50" height="50" relative="1" as="geometry">
            <mxPoint x="570" y="750" as="sourcePoint" />
            <mxPoint x="620" y="700" as="targetPoint" />
            <Array as="points">
              <mxPoint x="350" y="690" />
            </Array>
          </mxGeometry>
        </mxCell>
        <mxCell id="YrzJOqZfdvEQFL6Ilnsr-50" value="" style="endArrow=none;html=1;rounded=0;entryX=0.5;entryY=1;entryDx=0;entryDy=0;exitX=0.5;exitY=0;exitDx=0;exitDy=0;" edge="1" parent="1" source="YrzJOqZfdvEQFL6Ilnsr-48" target="YrzJOqZfdvEQFL6Ilnsr-30">
          <mxGeometry width="50" height="50" relative="1" as="geometry">
            <mxPoint x="570" y="750" as="sourcePoint" />
            <mxPoint x="620" y="700" as="targetPoint" />
          </mxGeometry>
        </mxCell>
        <mxCell id="YrzJOqZfdvEQFL6Ilnsr-54" value="&lt;h3&gt;Slug&lt;/h3&gt;" style="rounded=0;whiteSpace=wrap;html=1;" vertex="1" parent="1">
          <mxGeometry x="80" y="960" width="120" height="100" as="geometry" />
        </mxCell>
        <mxCell id="YrzJOqZfdvEQFL6Ilnsr-55" value="" style="endArrow=none;html=1;rounded=0;exitX=0.5;exitY=0;exitDx=0;exitDy=0;entryX=0.5;entryY=1;entryDx=0;entryDy=0;" edge="1" parent="1" source="YrzJOqZfdvEQFL6Ilnsr-54" target="YrzJOqZfdvEQFL6Ilnsr-36">
          <mxGeometry width="50" height="50" relative="1" as="geometry">
            <mxPoint x="570" y="750" as="sourcePoint" />
            <mxPoint x="620" y="700" as="targetPoint" />
          </mxGeometry>
        </mxCell>
        <mxCell id="YrzJOqZfdvEQFL6Ilnsr-56" value="" style="endArrow=none;html=1;rounded=0;exitX=1;exitY=0.5;exitDx=0;exitDy=0;entryX=0;entryY=1;entryDx=0;entryDy=0;" edge="1" parent="1" source="YrzJOqZfdvEQFL6Ilnsr-54" target="YrzJOqZfdvEQFL6Ilnsr-2">
          <mxGeometry width="50" height="50" relative="1" as="geometry">
            <mxPoint x="570" y="750" as="sourcePoint" />
            <mxPoint x="620" y="700" as="targetPoint" />
            <Array as="points">
              <mxPoint x="330" y="1010" />
            </Array>
          </mxGeometry>
        </mxCell>
        <mxCell id="YrzJOqZfdvEQFL6Ilnsr-58" value="&lt;h3&gt;Condensed Pyromana&lt;/h3&gt;&lt;div&gt;&lt;br&gt;&lt;/div&gt;" style="rounded=0;whiteSpace=wrap;html=1;" vertex="1" parent="1">
          <mxGeometry x="400" y="730" width="120" height="100" as="geometry" />
        </mxCell>
        <mxCell id="YrzJOqZfdvEQFL6Ilnsr-59" value="&lt;h3&gt;Firebolt&lt;/h3&gt;" style="rounded=0;whiteSpace=wrap;html=1;" vertex="1" parent="1">
          <mxGeometry x="400" y="950" width="120" height="100" as="geometry" />
        </mxCell>
        <mxCell id="YrzJOqZfdvEQFL6Ilnsr-60" value="" style="endArrow=none;html=1;rounded=0;exitX=1;exitY=0.5;exitDx=0;exitDy=0;entryX=0.25;entryY=1;entryDx=0;entryDy=0;" edge="1" parent="1" source="YrzJOqZfdvEQFL6Ilnsr-58" target="YrzJOqZfdvEQFL6Ilnsr-39">
          <mxGeometry width="50" height="50" relative="1" as="geometry">
            <mxPoint x="570" y="780" as="sourcePoint" />
            <mxPoint x="620" y="730" as="targetPoint" />
            <Array as="points">
              <mxPoint x="700" y="760" />
            </Array>
          </mxGeometry>
        </mxCell>
        <mxCell id="YrzJOqZfdvEQFL6Ilnsr-61" value="" style="endArrow=none;html=1;rounded=0;exitX=0;exitY=0.5;exitDx=0;exitDy=0;entryX=0.75;entryY=1;entryDx=0;entryDy=0;" edge="1" parent="1" source="YrzJOqZfdvEQFL6Ilnsr-58" target="YrzJOqZfdvEQFL6Ilnsr-30">
          <mxGeometry width="50" height="50" relative="1" as="geometry">
            <mxPoint x="570" y="690" as="sourcePoint" />
            <mxPoint x="620" y="640" as="targetPoint" />
            <Array as="points">
              <mxPoint x="380" y="690" />
            </Array>
          </mxGeometry>
        </mxCell>
        <mxCell id="YrzJOqZfdvEQFL6Ilnsr-62" value="" style="endArrow=none;html=1;rounded=0;exitX=0.5;exitY=1;exitDx=0;exitDy=0;entryX=1;entryY=0.5;entryDx=0;entryDy=0;" edge="1" parent="1" source="YrzJOqZfdvEQFL6Ilnsr-39" target="YrzJOqZfdvEQFL6Ilnsr-59">
          <mxGeometry width="50" height="50" relative="1" as="geometry">
            <mxPoint x="570" y="690" as="sourcePoint" />
            <mxPoint x="620" y="640" as="targetPoint" />
            <Array as="points">
              <mxPoint x="750" y="1000" />
            </Array>
          </mxGeometry>
        </mxCell>
        <mxCell id="YrzJOqZfdvEQFL6Ilnsr-64" value="" style="endArrow=none;html=1;rounded=0;exitX=0;exitY=0.5;exitDx=0;exitDy=0;entryX=1;entryY=1;entryDx=0;entryDy=0;" edge="1" parent="1" source="YrzJOqZfdvEQFL6Ilnsr-59" target="YrzJOqZfdvEQFL6Ilnsr-36">
          <mxGeometry width="50" height="50" relative="1" as="geometry">
            <mxPoint x="570" y="750" as="sourcePoint" />
            <mxPoint x="620" y="700" as="targetPoint" />
          </mxGeometry>
        </mxCell>
      </root>
    </mxGraphModel>
  </diagram>
</mxfile>
